<svg width="62" height="56" viewBox="0 0 62 56" fill="none" xmlns="http://www.w3.org/2000/svg">
<path d="M1.72222 31.5H10.3333V42L13.7778 39.6703L17.2222 42V31.5H25.8333C26.7806 31.5 27.5556 32.2875 27.5556 33.25V54.25C27.5556 55.2125 26.7806 56 25.8333 56H1.72222C0.775002 56 0 55.2125 0 54.25V33.25C0 32.2875 0.775002 31.5 1.72222 31.5ZM43.0556 24.5H18.9444C17.9972 24.5 17.2222 23.7125 17.2222 22.75V1.75C17.2222 0.7875 17.9972 0 18.9444 0H27.5556V10.5L31 8.17031L34.4444 10.5V0H43.0556C44.0028 0 44.7778 0.7875 44.7778 1.75V22.75C44.7778 23.7125 44.0028 24.5 43.0556 24.5ZM36.1667 31.5H44.7778V42L48.2222 39.6703L51.6667 42V31.5H60.2778C61.225 31.5 62 32.2875 62 33.25V54.25C62 55.2125 61.225 56 60.2778 56H36.1667C35.2194 56 34.4444 55.2125 34.4444 54.25V33.25C34.4444 32.2875 35.2194 31.5 36.1667 31.5Z" fill="#D77944"/>
</svg>
